<?xml version="1.0" encoding="utf-8"?>
<!-- Generator: Adobe Illustrator 27.5.0, SVG Export Plug-In . SVG Version: 6.00 Build 0)  -->
<svg version="1.1" id="Layer_1" xmlns="http://www.w3.org/2000/svg" xmlns:xlink="http://www.w3.org/1999/xlink" x="0px" y="0px"
	 viewBox="0 0 300 300" style="enable-background:new 0 0 300 300;" xml:space="preserve">
<style type="text/css">
	.st0{fill:url(#SVGID_1_);}
</style>
<linearGradient id="SVGID_1_" gradientUnits="userSpaceOnUse" x1="88.6679" y1="49.5981" x2="207.2333" y2="229.4445">
	<stop  offset="0" style="stop-color:#6532FF"/>
	<stop  offset="1" style="stop-color:#FC5D51"/>
</linearGradient>
<path class="st0" d="M255,152.7l-8.1-39.7c-0.5-2.3-2.5-4-4.9-4h-34.2c-2.4,0-4.4,1.6-4.9,3.9l-8.6,39.7c-0.7,3.1,1.7,6.1,4.9,6.1
	h20.4l0,27.4c0,18.1-14.8,33.3-32.9,33c-17.6-0.3-31.8-14.7-31.8-32.3v-6.8l11.4,0c2.6,0,4.9-1.9,5.2-4.5c0.3-3-2.1-5.5-5-5.5H155
	v-11.3h20.5c3.2,0,5.5-2.9,4.9-6l-8.1-39.7c-0.5-2.3-2.5-4-4.9-4H155V81.8c7.5-1.7,13.4-7.3,15.8-14.4H183c2.6,0,4.9-1.9,5.2-4.5
	c0.3-3-2.1-5.5-5-5.5l-66.3,0c-2.6,0-4.9,1.9-5.2,4.5c-0.3,3,2.1,5.5,5,5.5h12.4c2.4,7.2,8.4,12.7,15.8,14.4V109h-11.8
	c-2.4,0-4.4,1.6-4.9,3.9l-8.6,39.7c-0.7,3.1,1.7,6.1,4.9,6.1H145v11.3h-11.4c-2.6,0-4.9,1.9-5.2,4.5c-0.3,3,2.1,5.5,5,5.5H145v6.1
	c0,18.1-14.8,33.3-32.9,33c-17.6-0.3-31.8-14.7-31.8-32.3v-28h20.5c3.2,0,5.5-2.9,4.9-6L97.6,113c-0.5-2.3-2.5-4-4.9-4H58.6
	c-2.4,0-4.4,1.6-4.9,3.9L45,152.6c-0.7,3.1,1.7,6.1,4.9,6.1h20.4v27.3c0,23.1,18.2,42.5,41.3,43.1c13.3,0.3,25.3-5.6,33.3-15v23.4
	c0,2.6,1.9,4.9,4.5,5.2c3,0.3,5.5-2.1,5.5-5V214c8,9.4,20,15.3,33.3,15c23.1-0.5,41.3-20,41.3-43.1v-27.3h20.5
	C253.2,158.7,255.6,155.8,255,152.7z"/>
</svg>
