<?xml version="1.0" encoding="utf-8"?>
<!-- Generator: Adobe Illustrator 27.5.0, SVG Export Plug-In . SVG Version: 6.00 Build 0)  -->
<svg version="1.1" id="Layer_1" xmlns="http://www.w3.org/2000/svg" xmlns:xlink="http://www.w3.org/1999/xlink" x="0px" y="0px"
	 viewBox="0 0 300 300" style="enable-background:new 0 0 300 300;" xml:space="preserve">
<style type="text/css">
	.st0{fill:url(#SVGID_1_);}
	.st1{fill:url(#SVGID_00000023973732185499038470000012688235545346959777_);}
</style>
<g>
	<g>
		<linearGradient id="SVGID_1_" gradientUnits="userSpaceOnUse" x1="89.5753" y1="55.6305" x2="217.575" y2="225.408">
			<stop  offset="0" style="stop-color:#6532FF"/>
			<stop  offset="1" style="stop-color:#FC5D51"/>
		</linearGradient>
		<path class="st0" d="M231.3,128.5l-15-0.6l0.2-3.9c0.6-13.6-3.6-27-11.7-37.9c-8-10.7-19.4-18.5-32.2-22c-2.7-0.7-5.4,0.9-6.1,3.5
			c-0.7,2.7,0.9,5.4,3.5,6.1c22.5,6.1,37.5,26.6,36.5,49.8l-0.2,3.9l-29.2-1.1c-1.7-0.1-3.3,1-3.9,2.6l-8.9,24.1
			c-1,2.6,1,5.4,3.8,5.4h6.1c3.3,0,5.1,3.7,3.2,6.3l-45.9,64c-1.9,2.6-0.1,6.2,3.1,6.3l92.4,3.6c2.2,0.1,4.1-1.6,4.2-3.8l4-102.2
			C235.2,130.5,233.5,128.6,231.3,128.5z"/>
	</g>
	<g>
		
			<linearGradient id="SVGID_00000158736504175377433480000008187606399053161641_" gradientUnits="userSpaceOnUse" x1="52.4074" y1="83.6524" x2="180.4071" y2="253.4298">
			<stop  offset="0" style="stop-color:#6532FF"/>
			<stop  offset="1" style="stop-color:#FC5D51"/>
		</linearGradient>
		<path style="fill:url(#SVGID_00000158736504175377433480000008187606399053161641_);" d="M133.7,179.3l-7.4,0.1
			c-2.9,0.1-4.9-2.9-3.8-5.5l18.5-44.6c1.1-2.7-0.9-5.6-3.9-5.5l-43.3,1.7l-0.2-4.3c-1-23.4,14.8-44.5,37.5-50.1
			c2.7-0.7,4.3-3.4,3.6-6.1c-0.7-2.7-3.4-4.3-6.1-3.6c-27.3,6.8-46.2,32.1-45.1,60.2l0.2,4.3l-15.2,0.6c-2.2,0.1-3.9,1.9-3.8,4.2
			l4.1,102.2c0.1,2.2,1.9,3.9,4.2,3.8l45.3-1.8c1.7-0.1,3.1-1.2,3.6-2.8l15.6-47.6C138.5,182,136.5,179.3,133.7,179.3z"/>
	</g>
</g>
</svg>
