<?xml version="1.0" encoding="utf-8"?>
<!-- Generator: Adobe Illustrator 27.5.0, SVG Export Plug-In . SVG Version: 6.00 Build 0)  -->
<svg version="1.1" id="Layer_1" xmlns="http://www.w3.org/2000/svg" xmlns:xlink="http://www.w3.org/1999/xlink" x="0px" y="0px"
	 viewBox="0 0 300 300" style="enable-background:new 0 0 300 300;" xml:space="preserve">
<style type="text/css">
	.st0{fill:url(#SVGID_1_);}
</style>
<linearGradient id="SVGID_1_" gradientUnits="userSpaceOnUse" x1="68.4763" y1="68.4763" x2="210.0532" y2="210.0532">
	<stop  offset="0" style="stop-color:#6532FF"/>
	<stop  offset="1" style="stop-color:#FC5D51"/>
</linearGradient>
<path class="st0" d="M200.3,89.7H99.7c-5.5,0-10,4.5-10,10v100.5c0,5.5,4.5,10,10,10h100.5c5.5,0,10-4.5,10-10V99.7
	C210.3,94.2,205.8,89.7,200.3,89.7z M113.5,145h24.9c2.8,0,5,2.2,5,5s-2.2,5-5,5h-24.9c-2.8,0-5-2.2-5-5S110.7,145,113.5,145z
	 M108.5,132.6c0-2.8,2.2-5,5-5h24.9c2.8,0,5,2.2,5,5s-2.2,5-5,5h-24.9C110.7,137.6,108.5,135.4,108.5,132.6z M183.8,189.8h-70.4
	c-2.8,0-5-2.2-5-5c0-2.8,2.2-5,5-5h70.4c2.8,0,5,2.2,5,5C188.8,187.6,186.6,189.8,183.8,189.8z M183.8,172.4h-70.4c-2.8,0-5-2.2-5-5
	s2.2-5,5-5h70.4c2.8,0,5,2.2,5,5S186.6,172.4,183.8,172.4z M154.7,150v-17.4c0-1.8,1.3-3.2,2.9-3.2h26.1c1.6,0,2.9,1.5,2.9,3.2V150
	c0,1.8-1.3,3.2-2.9,3.2h-26.1C156,153.2,154.7,151.8,154.7,150z M183.8,120.2h-70.4c-2.8,0-5-2.2-5-5s2.2-5,5-5h70.4
	c2.8,0,5,2.2,5,5S186.6,120.2,183.8,120.2z"/>
</svg>
