<?xml version="1.0" encoding="utf-8"?>
<!-- Generator: Adobe Illustrator 27.5.0, SVG Export Plug-In . SVG Version: 6.00 Build 0)  -->
<svg version="1.1" id="Layer_1" xmlns="http://www.w3.org/2000/svg" xmlns:xlink="http://www.w3.org/1999/xlink" x="0px" y="0px"
	 viewBox="0 0 300 300" style="enable-background:new 0 0 300 300;" xml:space="preserve">
<style type="text/css">
	.st0{fill:url(#SVGID_1_);}
	.st1{fill:url(#SVGID_00000040560393463191732740000004920723919350933432_);}
	.st2{fill:url(#SVGID_00000115480828336186879940000015257818512710684553_);}
	.st3{fill:url(#SVGID_00000163036260904431738540000003285295775887439749_);}
	.st4{fill:url(#SVGID_00000026146414403961833860000004653907726806467229_);}
</style>
<g>
	<linearGradient id="SVGID_1_" gradientUnits="userSpaceOnUse" x1="48.3826" y1="109.2629" x2="175.293" y2="236.1733">
		<stop  offset="0" style="stop-color:#6532FF"/>
		<stop  offset="1" style="stop-color:#FC5D51"/>
	</linearGradient>
	<path class="st0" d="M189.2,191.7c-10.3,0-19.2,5.9-23.6,14.5c-4.4-3.2-9.8-5.1-15.6-5.1c-5.8,0-11.2,1.9-15.6,5.1
		c-4.4-8.6-13.3-14.5-23.6-14.5c-12.5,0-23,8.7-25.7,20.3c-0.7,3.1,1.7,6.1,4.9,6.1h35.3c-0.4,1-0.7,2.1-1,3.1
		c-0.8,3.2,1.6,6.2,4.8,6.2h41.7c3.3,0,5.6-3.1,4.8-6.2c-0.3-1.1-0.6-2.1-1-3.1h35.3c3.2,0,5.6-3,4.9-6.1
		C212.2,200.3,201.7,191.7,189.2,191.7z"/>
	
		<linearGradient id="SVGID_00000013899460681066714910000015803614644589389210_" gradientUnits="userSpaceOnUse" x1="86.8359" y1="70.8096" x2="213.7463" y2="197.72">
		<stop  offset="0" style="stop-color:#6532FF"/>
		<stop  offset="1" style="stop-color:#FC5D51"/>
	</linearGradient>
	<path style="fill:url(#SVGID_00000013899460681066714910000015803614644589389210_);" d="M204.3,173.2c0-8.3-6.8-15.1-15.1-15.1
		c-8.3,0-15.1,6.8-15.1,15.1s6.8,15.1,15.1,15.1C197.6,188.3,204.3,181.5,204.3,173.2z"/>
	
		<linearGradient id="SVGID_00000034786500254332769800000015531227770197456272_" gradientUnits="userSpaceOnUse" x1="47.6309" y1="110.0146" x2="174.5413" y2="236.925">
		<stop  offset="0" style="stop-color:#6532FF"/>
		<stop  offset="1" style="stop-color:#FC5D51"/>
	</linearGradient>
	<circle style="fill:url(#SVGID_00000034786500254332769800000015531227770197456272_);" cx="110.8" cy="173.2" r="15.1"/>
	
		<linearGradient id="SVGID_00000088850567640243700390000009474338824841838233_" gradientUnits="userSpaceOnUse" x1="62.5462" y1="95.0993" x2="189.4566" y2="222.0097">
		<stop  offset="0" style="stop-color:#6532FF"/>
		<stop  offset="1" style="stop-color:#FC5D51"/>
	</linearGradient>
	<path style="fill:url(#SVGID_00000088850567640243700390000009474338824841838233_);" d="M165.1,182.6c0-8.3-6.8-15.1-15.1-15.1
		c-8.3,0-15.1,6.8-15.1,15.1c0,8.3,6.8,15.1,15.1,15.1C158.3,197.7,165.1,190.9,165.1,182.6z"/>
	
		<linearGradient id="SVGID_00000083796922884578073790000018311651535514168725_" gradientUnits="userSpaceOnUse" x1="100.996" y1="56.6495" x2="227.9064" y2="183.5599">
		<stop  offset="0" style="stop-color:#6532FF"/>
		<stop  offset="1" style="stop-color:#FC5D51"/>
	</linearGradient>
	<path style="fill:url(#SVGID_00000083796922884578073790000018311651535514168725_);" d="M186.5,72.5h-72.9
		c-18.3,0-33.1,14.8-33.1,33.1v0c0,18,14.4,32.7,32.4,33.1l1.6,7.7c0.2,0.9,1.3,1.1,1.8,0.4l5.7-8h23.7l3.5,7.9
		c0.3,0.8,1.5,0.8,1.8,0l3.5-7.9h27.7l5.7,8c0.5,0.7,1.6,0.5,1.8-0.4l1.7-8c16-2.3,28.3-16.1,28.3-32.8v0
		C219.6,87.3,204.8,72.5,186.5,72.5z M129.9,110.8c-3.5,0-6.3-2.8-6.3-6.3c0-3.5,2.8-6.3,6.3-6.3s6.3,2.8,6.3,6.3
		C136.2,108,133.4,110.8,129.9,110.8z M150,110.8c-3.5,0-6.3-2.8-6.3-6.3c0-3.5,2.8-6.3,6.3-6.3s6.3,2.8,6.3,6.3
		C156.3,108,153.5,110.8,150,110.8z M170.1,110.8c-3.5,0-6.3-2.8-6.3-6.3c0-3.5,2.8-6.3,6.3-6.3c3.5,0,6.3,2.8,6.3,6.3
		C176.4,108,173.6,110.8,170.1,110.8z"/>
</g>
</svg>
