<?xml version="1.0" encoding="utf-8"?>
<!-- Generator: Adobe Illustrator 27.5.0, SVG Export Plug-In . SVG Version: 6.00 Build 0)  -->
<svg version="1.1" id="Layer_1" xmlns="http://www.w3.org/2000/svg" xmlns:xlink="http://www.w3.org/1999/xlink" x="0px" y="0px"
	 viewBox="0 0 300 300" style="enable-background:new 0 0 300 300;" xml:space="preserve">
<style type="text/css">
	.st0{fill:url(#SVGID_1_);}
</style>
<g>
	<linearGradient id="SVGID_1_" gradientUnits="userSpaceOnUse" x1="89.4784" y1="32.5099" x2="223.5957" y2="218.8624">
		<stop  offset="0" style="stop-color:#6532FF"/>
		<stop  offset="1" style="stop-color:#FC5D51"/>
	</linearGradient>
	<path class="st0" d="M257.4,72.8c-0.1-4-3.4-8.5-9-11.4c-3.1-1.6-6.3-2.6-9.2-2.6c0,0,0,0-0.1,0c-2.1,0-3.9,0.5-5.3,1.4
		c-0.7,0.2-1.3,0.7-1.7,1.4l-0.4,0.8c0,0-0.1,0.1-0.1,0.1c0,0,0,0.1-0.1,0.1l-21.4,39.9c-0.5,0.9-0.5,2,0,2.8
		c0.1,1.5,0.7,3.1,1.7,4.7c0.6,1,1.4,1.9,2.4,2.8l-41.8,39.8l-17.3-38.1c3.9-0.9,6.9-2.8,8.3-5.2c0.5-0.6,0.9-1.3,0.9-2.2V60.6
		c0-0.8-0.3-1.5-0.8-2.1c-1.9-3.5-7-5.9-13.4-5.9s-11.5,2.4-13.4,5.9c-0.5,0.5-0.8,1.3-0.8,2.1v46.5c0,0.9,0.4,1.7,0.9,2.2
		c1.2,2,3.5,3.7,6.5,4.7l-17.1,37.8l-40.5-38.9c1-0.9,1.9-1.9,2.6-3c1-1.6,1.6-3.2,1.7-4.7c0.4-0.9,0.5-1.9,0-2.8L68.5,62.6
		c0,0,0-0.1-0.1-0.1c0,0-0.1-0.1-0.1-0.1l-0.4-0.8c-0.4-0.7-1-1.2-1.7-1.4c-1.4-0.9-3.2-1.4-5.3-1.4c-0.1,0-0.1,0-0.1,0
		c-2.9,0-6.1,1-9.2,2.6c-5.6,3-9,7.5-9,11.4c-0.2,0.7-0.2,1.5,0.2,2.3L64,114.5c0.1,0.2,0.2,0.5,0.3,0.7c0.1,0.2,0.2,0.3,0.3,0.5
		l0.2,0.3c0.3,0.6,0.9,1.1,1.5,1.4c1.4,1,3.3,1.5,5.5,1.5c1,0,2-0.1,3.1-0.3l17,110.9l0,0.1c0.1,0.6,0.3,1.1,0.6,1.6
		c0.7,9,25.8,16.3,56.7,16.3c31.4,0,56.8-7.4,56.8-16.6c0,0,0-0.1,0-0.1c0.2-0.4,0.3-0.9,0.4-1.3L225,118.5c1.1,0.2,2.2,0.3,3.2,0.3
		c2.2,0,4.1-0.6,5.5-1.5c0.6-0.3,1.2-0.7,1.5-1.4l0.2-0.3c0.1-0.2,0.2-0.3,0.3-0.5c0.1-0.2,0.2-0.5,0.3-0.7l21.2-39.4
		C257.6,74.3,257.6,73.5,257.4,72.8z M83.3,106.8c-0.6,0.8-1.3,1.6-2.2,2.3c-0.4,0.4-0.9,0.7-1.4,1c0,0,0,0,0,0
		c-0.5,0.3-1,0.6-1.5,0.9c-0.3,0.2-0.6,0.3-0.9,0.5c-0.1,0-0.1,0.1-0.2,0.1c-0.2,0.1-0.5,0.2-0.7,0.3c-0.1,0-0.1,0-0.2,0.1
		c-0.3,0.1-0.5,0.2-0.8,0.3c0,0-0.1,0-0.1,0c-0.3,0.1-0.6,0.2-0.9,0.3c-0.9,0.2-1.7,0.4-2.5,0.4c-1-0.1-1.7-0.3-2-0.4l-0.3-0.6
		c0-0.4,0.2-1,0.8-1.8c1.1-1.6,2.9-3.1,5.1-4.3c2.1-1.2,4.5-1.9,6.4-1.9c1.5,0,2.1,0.4,2.2,0.6C84.2,104.8,84.1,105.6,83.3,106.8z
		 M187.9,211.1l-31.2-30l12.3-11.7L187.9,211.1z M141.8,106.1c0-0.8,2.8-3,8.2-3c5.4,0,8.2,2.2,8.2,3c0,0.7-2.2,2.5-6.6,2.9
		c-0.5,0-1.1,0.1-1.6,0.1c-0.6,0-1.1,0-1.7-0.1c0,0-0.1,0-0.1,0c-0.5-0.1-1-0.1-1.5-0.2C143.5,108.2,141.8,106.7,141.8,106.1z
		 M149,125.5l15.6,34.4l-15.1,14.4l-15.7-15.1L149,125.5z M129.4,168.8l12.8,12.3L110,211.7L129.4,168.8z M86.4,127.5l35.4,34
		l-22.5,49.9L86.4,127.5z M119.3,216.7l30.1-28.6l29.8,28.6c-8.7-1.6-19-2.5-29.9-2.5C138.3,214.2,128,215.1,119.3,216.7z
		 M199.1,211.6l-22.5-49.5l36.6-34.8L199.1,211.6z M230.2,112.6c-0.3,0.2-1,0.3-2,0.4c-0.8,0-1.6-0.1-2.5-0.3
		c-0.3-0.1-0.6-0.2-0.9-0.3c0,0-0.1,0-0.1,0c-0.3-0.1-0.5-0.2-0.8-0.3c-0.1,0-0.1-0.1-0.2-0.1c-0.2-0.1-0.5-0.2-0.7-0.3
		c-0.1,0-0.1-0.1-0.2-0.1c-0.3-0.1-0.6-0.3-0.9-0.5c-0.3-0.2-0.6-0.3-0.9-0.5c0,0-0.1-0.1-0.1-0.1c-0.2-0.2-0.5-0.3-0.7-0.5
		c0,0,0,0-0.1,0c-0.2-0.2-0.5-0.4-0.7-0.5c0,0,0,0,0,0c-0.2-0.2-0.5-0.4-0.7-0.6c-0.7-0.7-1.4-1.4-1.9-2.1c-0.8-1.2-0.9-2-0.7-2.2
		c0.1-0.2,0.7-0.6,2.2-0.6c1.9,0,4.3,0.7,6.4,1.9c2.2,1.2,4,2.7,5.1,4.3c0.5,0.8,0.8,1.4,0.8,1.8L230.2,112.6z"/>
</g>
</svg>
