<?xml version="1.0" encoding="utf-8"?>
<!-- Generator: Adobe Illustrator 27.5.0, SVG Export Plug-In . SVG Version: 6.00 Build 0)  -->
<svg version="1.1" id="Layer_1" xmlns="http://www.w3.org/2000/svg" xmlns:xlink="http://www.w3.org/1999/xlink" x="0px" y="0px"
	 viewBox="0 0 300 300" style="enable-background:new 0 0 300 300;" xml:space="preserve">
<style type="text/css">
	.st0{fill:url(#SVGID_1_);}
	.st1{fill:url(#SVGID_00000034788684241324938950000016024336267248176307_);}
	.st2{fill:url(#SVGID_00000029728037039831286660000003001650758785843616_);}
	.st3{fill:url(#SVGID_00000096751726501461750910000001282946628550705567_);}
	.st4{fill:url(#SVGID_00000173123790719707487960000005553395713240226226_);}
	.st5{fill:url(#SVGID_00000100349988676142453680000005596627339041858968_);}
	.st6{fill:url(#SVGID_00000130609714606819749540000013104427045613828273_);}
</style>
<g>
	<linearGradient id="SVGID_1_" gradientUnits="userSpaceOnUse" x1="39.8606" y1="113.67" x2="189.5074" y2="254.8461">
		<stop  offset="0" style="stop-color:#6532FF"/>
		<stop  offset="1" style="stop-color:#FC5D51"/>
	</linearGradient>
	<path class="st0" d="M225.9,212.6H74.1c-2.8,0-5,2.2-5,5s2.2,5,5,5h151.7c2.8,0,5-2.2,5-5S228.6,212.6,225.9,212.6z"/>
	
		<linearGradient id="SVGID_00000068675900609907767720000014579453063819940503_" gradientUnits="userSpaceOnUse" x1="52.609" y1="103.4854" x2="196.6951" y2="239.4156">
		<stop  offset="0" style="stop-color:#6532FF"/>
		<stop  offset="1" style="stop-color:#FC5D51"/>
	</linearGradient>
	<path style="fill:url(#SVGID_00000068675900609907767720000014579453063819940503_);" d="M107.1,80.4H84.3c-2.8,0-5,2.2-5,5v117.4
		c0,2.8,2.2,5,5,5h22.8c2.8,0,5-2.2,5-5V85.4C112.1,82.6,109.8,80.4,107.1,80.4z M95.7,199.2c-4.8,0-8.7-3.9-8.7-8.7
		s3.9-8.7,8.7-8.7s8.7,3.9,8.7,8.7S100.4,199.2,95.7,199.2z M104.5,126.5H86.8c-1.4,0-2.5-1.1-2.5-2.5s1.1-2.5,2.5-2.5h17.6
		c1.4,0,2.5,1.1,2.5,2.5S105.9,126.5,104.5,126.5z M104.5,117.4H86.8c-1.4,0-2.5-1.1-2.5-2.5s1.1-2.5,2.5-2.5h17.6
		c1.4,0,2.5,1.1,2.5,2.5S105.9,117.4,104.5,117.4z M104.5,108.2H86.8c-1.4,0-2.5-1.1-2.5-2.5s1.1-2.5,2.5-2.5h17.6
		c1.4,0,2.5,1.1,2.5,2.5S105.9,108.2,104.5,108.2z"/>
	
		<linearGradient id="SVGID_00000041267977389379243500000003772384133668399775_" gradientUnits="userSpaceOnUse" x1="27.7808" y1="126.4745" x2="177.4276" y2="267.6507">
		<stop  offset="0" style="stop-color:#6532FF"/>
		<stop  offset="1" style="stop-color:#FC5D51"/>
	</linearGradient>
	<circle style="fill:url(#SVGID_00000041267977389379243500000003772384133668399775_);" cx="95.7" cy="190.5" r="3.7"/>
	
		<linearGradient id="SVGID_00000101793831431204812010000001175679639539665326_" gradientUnits="userSpaceOnUse" x1="78.936" y1="72.25" x2="228.5828" y2="213.4262">
		<stop  offset="0" style="stop-color:#6532FF"/>
		<stop  offset="1" style="stop-color:#FC5D51"/>
	</linearGradient>
	<path style="fill:url(#SVGID_00000101793831431204812010000001175679639539665326_);" d="M198.5,189.9c0.9,0.5,1.9,0.6,2.8,0.3
		c0.9-0.3,1.7-0.9,2.2-1.7c0.5-0.9,0.6-1.8,0.3-2.8c-0.3-0.9-0.9-1.7-1.7-2.2c-0.6-0.3-1.2-0.5-1.8-0.5c-0.3,0-0.7,0-1,0.1
		c-0.9,0.3-1.7,0.9-2.2,1.7c-0.5,0.9-0.6,1.8-0.3,2.8C197,188.7,197.6,189.5,198.5,189.9z"/>
	
		<linearGradient id="SVGID_00000174588369114083695950000012457434287920629904_" gradientUnits="userSpaceOnUse" x1="71.1656" y1="85.3054" x2="215.2516" y2="221.2356">
		<stop  offset="0" style="stop-color:#6532FF"/>
		<stop  offset="1" style="stop-color:#FC5D51"/>
	</linearGradient>
	<path style="fill:url(#SVGID_00000174588369114083695950000012457434287920629904_);" d="M144.9,80.4h-22.8c-2.8,0-5,2.2-5,5v117.4
		c0,2.8,2.2,5,5,5h22.8c2.8,0,5-2.2,5-5V85.4C149.9,82.6,147.7,80.4,144.9,80.4z M133.5,199.2c-4.8,0-8.7-3.9-8.7-8.7
		s3.9-8.7,8.7-8.7s8.7,3.9,8.7,8.7S138.3,199.2,133.5,199.2z M142.3,126.5h-17.6c-1.4,0-2.5-1.1-2.5-2.5s1.1-2.5,2.5-2.5h17.6
		c1.4,0,2.5,1.1,2.5,2.5S143.7,126.5,142.3,126.5z M142.3,117.4h-17.6c-1.4,0-2.5-1.1-2.5-2.5s1.1-2.5,2.5-2.5h17.6
		c1.4,0,2.5,1.1,2.5,2.5S143.7,117.4,142.3,117.4z M142.3,108.2h-17.6c-1.4,0-2.5-1.1-2.5-2.5s1.1-2.5,2.5-2.5h17.6
		c1.4,0,2.5,1.1,2.5,2.5S143.7,108.2,142.3,108.2z"/>
	
		<linearGradient id="SVGID_00000091012991421152116480000005671640082418966678_" gradientUnits="userSpaceOnUse" x1="98.0862" y1="57.4176" x2="243.3148" y2="194.4257">
		<stop  offset="0" style="stop-color:#6532FF"/>
		<stop  offset="1" style="stop-color:#FC5D51"/>
	</linearGradient>
	<path style="fill:url(#SVGID_00000091012991421152116480000005671640082418966678_);" d="M219.4,194.1L187.8,81.1
		c-0.7-2.7-3.5-4.2-6.2-3.5l-22,6.1c-2.7,0.7-4.2,3.5-3.5,6.2L187.8,203c0.7,2.7,3.5,4.2,6.2,3.5l22-6.1
		C218.6,199.6,220.1,196.8,219.4,194.1z M197.9,178.4c4.6-1.3,9.4,1.4,10.7,6s-1.4,9.4-6,10.7c-0.8,0.2-1.6,0.3-2.3,0.3
		c-3.8,0-7.3-2.5-8.4-6.3C190.6,184.5,193.3,179.7,197.9,178.4z M166.5,108.1c-0.4-1.3,0.4-2.7,1.7-3.1l17-4.8
		c1.3-0.4,2.7,0.4,3.1,1.7c0.4,1.3-0.4,2.7-1.7,3.1l-17,4.8c-0.2,0.1-0.5,0.1-0.7,0.1C167.8,109.9,166.8,109.2,166.5,108.1z
		 M169,116.9c-0.4-1.3,0.4-2.7,1.7-3.1l17-4.8c1.3-0.4,2.7,0.4,3.1,1.7c0.4,1.3-0.4,2.7-1.7,3.1l-17,4.8c-0.2,0.1-0.5,0.1-0.7,0.1
		C170.3,118.8,169.3,118,169,116.9z M173.9,127.6c-1.1,0-2.1-0.7-2.4-1.8c-0.4-1.3,0.4-2.7,1.7-3.1l17-4.8c1.3-0.4,2.7,0.4,3.1,1.7
		c0.4,1.3-0.4,2.7-1.7,3.1l-17,4.8C174.3,127.6,174.1,127.6,173.9,127.6z"/>
	
		<linearGradient id="SVGID_00000071541900254090290320000009080685827439410352_" gradientUnits="userSpaceOnUse" x1="45.5936" y1="107.593" x2="195.2403" y2="248.7692">
		<stop  offset="0" style="stop-color:#6532FF"/>
		<stop  offset="1" style="stop-color:#FC5D51"/>
	</linearGradient>
	<circle style="fill:url(#SVGID_00000071541900254090290320000009080685827439410352_);" cx="133.5" cy="190.5" r="3.7"/>
</g>
</svg>
