<?xml version="1.0" encoding="utf-8"?>
<!-- Generator: Adobe Illustrator 27.5.0, SVG Export Plug-In . SVG Version: 6.00 Build 0)  -->
<svg version="1.1" id="Layer_1" xmlns="http://www.w3.org/2000/svg" xmlns:xlink="http://www.w3.org/1999/xlink" x="0px" y="0px"
	 viewBox="0 0 300 300" style="enable-background:new 0 0 300 300;" xml:space="preserve">
<style type="text/css">
	.st0{fill:url(#SVGID_1_);}
	.st1{fill:url(#SVGID_00000152238640901412479840000007017738140172027297_);}
	.st2{fill:url(#SVGID_00000174598093884294296630000002625375417092739463_);}
</style>
<g>
	<linearGradient id="SVGID_1_" gradientUnits="userSpaceOnUse" x1="78.1948" y1="94.5063" x2="208.3141" y2="224.6256">
		<stop  offset="0" style="stop-color:#6532FF"/>
		<stop  offset="1" style="stop-color:#FC5D51"/>
	</linearGradient>
	<path class="st0" d="M112.9,110.2c-10.5,0-19,8.5-19,19s8.5,19,19,19c3.9,0,7.5-1.2,10.5-3.2l-6.4-6.4c-1-1-1-2.6,0-3.5
		s2.6-1,3.5,0l6.7,6.7c3-3.4,4.8-7.8,4.8-12.6C132,118.7,123.4,110.2,112.9,110.2z"/>
	
		<linearGradient id="SVGID_00000161615698155485223180000010479558822281911478_" gradientUnits="userSpaceOnUse" x1="89.6772" y1="83.0238" x2="219.7965" y2="213.1431">
		<stop  offset="0" style="stop-color:#6532FF"/>
		<stop  offset="1" style="stop-color:#FC5D51"/>
	</linearGradient>
	<path style="fill:url(#SVGID_00000161615698155485223180000010479558822281911478_);" d="M193.8,104.8h-13.4
		c-5.2,0-10.2,0.8-14.9,2.2c-8.5-16.7-25.9-28.2-45.9-28.2h-13.4c-28.4,0-51.5,23.1-51.5,51.5c0,28.2,22.7,51.1,50.8,51.5l2.3,12
		c0.3,1.3,2,1.7,2.8,0.6l9.5-12.7c5,0,9.8-0.8,14.4-2.2c8.4,16.6,25.6,28,45.5,28.2l9.5,12.7c0.3,0.4,0.8,0.6,1.2,0.6
		c0.7,0,1.4-0.5,1.5-1.3l2.3-12c28.1-0.4,50.8-23.3,50.8-51.5C245.3,127.9,222.2,104.8,193.8,104.8z M130.7,145.4l1.7,1.7
		c1,1,1,2.6,0,3.5c-0.5,0.5-1.1,0.7-1.8,0.7s-1.3-0.2-1.8-0.7l-1.9-1.9c-4,2.9-8.8,4.6-14.1,4.6c-13.3,0-24-10.8-24-24
		s10.8-24,24-24c13.3,0,24,10.8,24,24C137,135.5,134.6,141.1,130.7,145.4z M223.3,185.5c-7.7,7.8-18,12.2-29,12.3l-8.2,0.1l-0.2,1.2
		l-0.9-1.2l-5,0c-15.7-0.1-29.3-9-36.2-22c16.3-8.7,27.3-25.8,27.3-45.5c0-4.8-0.7-9.5-1.9-14c3.6-1,7.3-1.5,11.2-1.5h13.4
		c22.9,0,41.5,18.6,41.5,41.5C235.3,167.3,231,177.7,223.3,185.5z"/>
	
		<linearGradient id="SVGID_00000117664481108406447300000017245431487941045395_" gradientUnits="userSpaceOnUse" x1="98.3298" y1="74.3713" x2="228.4491" y2="204.4906">
		<stop  offset="0" style="stop-color:#6532FF"/>
		<stop  offset="1" style="stop-color:#FC5D51"/>
	</linearGradient>
	<path style="fill:url(#SVGID_00000117664481108406447300000017245431487941045395_);" d="M189.3,137.9c-0.4-0.9-1.3-1.4-2.2-1.4
		s-1.8,0.5-2.2,1.4l-15.9,32.4c-0.6,1.2-0.1,2.7,1.1,3.3c1.2,0.6,2.7,0.1,3.3-1.1l3.9-7.9h19.6l3.9,7.9c0.4,0.9,1.3,1.4,2.2,1.4
		c0.4,0,0.7-0.1,1.1-0.3c1.2-0.6,1.7-2.1,1.1-3.3L189.3,137.9z M179.7,159.5l7.3-14.9l7.3,14.9H179.7z"/>
</g>
</svg>
