<?xml version="1.0" encoding="utf-8"?>
<!-- Generator: Adobe Illustrator 27.5.0, SVG Export Plug-In . SVG Version: 6.00 Build 0)  -->
<svg version="1.1" id="Layer_1" xmlns="http://www.w3.org/2000/svg" xmlns:xlink="http://www.w3.org/1999/xlink" x="0px" y="0px"
	 viewBox="0 0 300 300" style="enable-background:new 0 0 300 300;" xml:space="preserve">
<style type="text/css">
	.st0{fill-rule:evenodd;clip-rule:evenodd;fill:url(#SVGID_1_);}
	.st1{fill-rule:evenodd;clip-rule:evenodd;fill:url(#SVGID_00000053531817736677409880000004172496728086088332_);}
	.st2{fill-rule:evenodd;clip-rule:evenodd;fill:url(#SVGID_00000011735950071923099450000011603215743565595020_);}
	.st3{fill-rule:evenodd;clip-rule:evenodd;fill:url(#SVGID_00000139262188072215255040000002350954305863475099_);}
	.st4{fill-rule:evenodd;clip-rule:evenodd;fill:url(#SVGID_00000102512241231084961510000011888710202441317814_);}
	.st5{fill-rule:evenodd;clip-rule:evenodd;fill:url(#SVGID_00000152946475191960892400000006398739713293331846_);}
	.st6{fill-rule:evenodd;clip-rule:evenodd;fill:url(#SVGID_00000023273464461272432740000006796845224899255482_);}
	.st7{fill-rule:evenodd;clip-rule:evenodd;fill:url(#SVGID_00000038394535227478926700000010602044463269081511_);}
	.st8{fill-rule:evenodd;clip-rule:evenodd;fill:url(#SVGID_00000171687217081032485850000016504264345403817905_);}
</style>
<g>
	<linearGradient id="SVGID_1_" gradientUnits="userSpaceOnUse" x1="81.1006" y1="80.5748" x2="218.2915" y2="217.7657">
		<stop  offset="0" style="stop-color:#6532FF"/>
		<stop  offset="1" style="stop-color:#FC5D51"/>
	</linearGradient>
	<path class="st0" d="M208.3,116.2c1.1,1.1,2.5,1.6,3.9,1.6c1.4,0,2.8-0.5,3.9-1.6c2.1-2.1,2.1-5.6,0-7.7l-14.2-14.2
		c-2.1-2.1-5.6-2.1-7.7,0c-2.1,2.1-2.1,5.6,0,7.7l3.2,3.2l-7.7,7.7c-10-8.4-22.6-13.9-36.3-15.1V83.6h4.6c3,0,5.5-2.4,5.5-5.5
		c0-3-2.4-5.5-5.5-5.5h-20.1c-3,0-5.5,2.4-5.5,5.5c0,3,2.4,5.5,5.5,5.5h4.6v14.3c-33.3,2.8-59.4,30.6-59.4,64.6
		c0,35.8,29,64.8,64.8,64.8c35.8,0,64.8-29,64.8-64.8c0-15.9-5.8-30.5-15.3-41.8l7.7-7.7L208.3,116.2z M147.7,216.4
		c-29.7,0-53.9-24.2-53.9-53.9c0-29.7,24.2-53.9,53.9-53.9c29.7,0,53.9,24.2,53.9,53.9C201.6,192.2,177.5,216.4,147.7,216.4z"/>
	
		<linearGradient id="SVGID_00000034793538069763979010000018289147383013163154_" gradientUnits="userSpaceOnUse" x1="104.3242" y1="57.3511" x2="241.5152" y2="194.542">
		<stop  offset="0" style="stop-color:#6532FF"/>
		<stop  offset="1" style="stop-color:#FC5D51"/>
	</linearGradient>
	<path style="fill-rule:evenodd;clip-rule:evenodd;fill:url(#SVGID_00000034793538069763979010000018289147383013163154_);" d="
		M179.1,127.2l-4.9,4.9c-1.1,1.1-1.1,2.8,0,3.9c0.5,0.5,1.2,0.8,1.9,0.8c0.7,0,1.4-0.3,1.9-0.8l4.9-4.9c1.1-1.1,1.1-2.8,0-3.9
		C181.9,126.2,180.2,126.2,179.1,127.2z"/>
	
		<linearGradient id="SVGID_00000068671126006686641970000001901795054565676184_" gradientUnits="userSpaceOnUse" x1="95.2811" y1="66.3942" x2="232.472" y2="203.5852">
		<stop  offset="0" style="stop-color:#6532FF"/>
		<stop  offset="1" style="stop-color:#FC5D51"/>
	</linearGradient>
	<path style="fill-rule:evenodd;clip-rule:evenodd;fill:url(#SVGID_00000068671126006686641970000001901795054565676184_);" d="
		M187.9,165.2h7c1.5,0,2.7-1.2,2.7-2.7s-1.2-2.7-2.7-2.7h-7c-1.5,0-2.7,1.2-2.7,2.7S186.4,165.2,187.9,165.2z"/>
	
		<linearGradient id="SVGID_00000175317338148161540460000001161317097003185841_" gradientUnits="userSpaceOnUse" x1="73.4483" y1="88.2271" x2="210.6392" y2="225.418">
		<stop  offset="0" style="stop-color:#6532FF"/>
		<stop  offset="1" style="stop-color:#FC5D51"/>
	</linearGradient>
	<path style="fill-rule:evenodd;clip-rule:evenodd;fill:url(#SVGID_00000175317338148161540460000001161317097003185841_);" d="
		M178.1,189c-1.1-1.1-2.8-1.1-3.9,0c-1.1,1.1-1.1,2.8,0,3.9l4.9,4.9c0.5,0.5,1.2,0.8,1.9,0.8c0.7,0,1.4-0.3,1.9-0.8
		c1.1-1.1,1.1-2.8,0-3.9L178.1,189z"/>
	
		<linearGradient id="SVGID_00000146471218619967517960000016355797376040303005_" gradientUnits="userSpaceOnUse" x1="51.6159" y1="110.0594" x2="188.8069" y2="247.2503">
		<stop  offset="0" style="stop-color:#6532FF"/>
		<stop  offset="1" style="stop-color:#FC5D51"/>
	</linearGradient>
	<path style="fill-rule:evenodd;clip-rule:evenodd;fill:url(#SVGID_00000146471218619967517960000016355797376040303005_);" d="
		M147.7,199.9c-1.5,0-2.7,1.2-2.7,2.7v7c0,1.5,1.2,2.7,2.7,2.7c1.5,0,2.7-1.2,2.7-2.7v-7C150.5,201.2,149.2,199.9,147.7,199.9z"/>
	
		<linearGradient id="SVGID_00000119085134190792147860000007924604302738822273_" gradientUnits="userSpaceOnUse" x1="42.5723" y1="119.1031" x2="179.7632" y2="256.294">
		<stop  offset="0" style="stop-color:#6532FF"/>
		<stop  offset="1" style="stop-color:#FC5D51"/>
	</linearGradient>
	<path style="fill-rule:evenodd;clip-rule:evenodd;fill:url(#SVGID_00000119085134190792147860000007924604302738822273_);" d="
		M117.4,189l-4.9,4.9c-1.1,1.1-1.1,2.8,0,3.9c0.5,0.5,1.2,0.8,1.9,0.8c0.7,0,1.4-0.3,1.9-0.8l4.9-4.9c1.1-1.1,1.1-2.8,0-3.9
		C120.2,187.9,118.5,187.9,117.4,189z"/>
	
		<linearGradient id="SVGID_00000117648430254537038490000018317634646387208606_" gradientUnits="userSpaceOnUse" x1="51.6159" y1="110.0594" x2="188.8068" y2="247.2504">
		<stop  offset="0" style="stop-color:#6532FF"/>
		<stop  offset="1" style="stop-color:#FC5D51"/>
	</linearGradient>
	<path style="fill-rule:evenodd;clip-rule:evenodd;fill:url(#SVGID_00000117648430254537038490000018317634646387208606_);" d="
		M107.6,159.8h-7c-1.5,0-2.7,1.2-2.7,2.7s1.2,2.7,2.7,2.7h7c1.5,0,2.7-1.2,2.7-2.7S109.1,159.8,107.6,159.8z"/>
	
		<linearGradient id="SVGID_00000176042796290587453580000004068593916513118894_" gradientUnits="userSpaceOnUse" x1="73.4483" y1="88.2271" x2="210.6392" y2="225.418">
		<stop  offset="0" style="stop-color:#6532FF"/>
		<stop  offset="1" style="stop-color:#FC5D51"/>
	</linearGradient>
	<path style="fill-rule:evenodd;clip-rule:evenodd;fill:url(#SVGID_00000176042796290587453580000004068593916513118894_);" d="
		M116.3,127.2c-1.1-1.1-2.8-1.1-3.9,0c-1.1,1.1-1.1,2.8,0,3.9l4.9,4.9c0.5,0.5,1.2,0.8,1.9,0.8c0.7,0,1.4-0.3,1.9-0.8
		c1.1-1.1,1.1-2.8,0-3.9L116.3,127.2z"/>
	
		<linearGradient id="SVGID_00000119821951730708005540000009832391047139507592_" gradientUnits="userSpaceOnUse" x1="82.6577" y1="79.0177" x2="219.8486" y2="216.2086">
		<stop  offset="0" style="stop-color:#6532FF"/>
		<stop  offset="1" style="stop-color:#FC5D51"/>
	</linearGradient>
	<path style="fill-rule:evenodd;clip-rule:evenodd;fill:url(#SVGID_00000119821951730708005540000009832391047139507592_);" d="
		M150.5,152.9v-30.5v-7c0-1.5-1.2-2.7-2.7-2.7c-1.5,0-2.7,1.2-2.7,2.7v7v30.5c-4.2,1.2-7.3,5.1-7.3,9.6c0,5.5,4.5,10,10,10
		s10-4.5,10-10C157.8,157.9,154.7,154.1,150.5,152.9z"/>
</g>
</svg>
