<?xml version="1.0" encoding="utf-8"?>
<!-- Generator: Adobe Illustrator 27.5.0, SVG Export Plug-In . SVG Version: 6.00 Build 0)  -->
<svg version="1.1" id="Layer_1" xmlns="http://www.w3.org/2000/svg" xmlns:xlink="http://www.w3.org/1999/xlink" x="0px" y="0px"
	 viewBox="0 0 300 300" style="enable-background:new 0 0 300 300;" xml:space="preserve">
<style type="text/css">
	.st0{fill:url(#SVGID_1_);}
</style>
<g>
	<linearGradient id="SVGID_1_" gradientUnits="userSpaceOnUse" x1="58.0561" y1="51.636" x2="208.7224" y2="262.3023">
		<stop  offset="0" style="stop-color:#6532FF"/>
		<stop  offset="1" style="stop-color:#FC5D51"/>
	</linearGradient>
	<path class="st0" d="M225.4,171.3c0-0.1,0-0.1,0-0.2v-7.6c0-2.8-2.2-5-5-5h-11.1V151c5.5-2,9.5-7.4,9.5-13.6v-7.1
		c0-6.2-4-11.6-9.5-13.6v-6.3c1.7-0.7,3.4-1.8,4.8-3.2v0c2.7-2.7,4.3-6.4,4.3-10.3s-1.5-7.5-4.3-10.3l-5-5
		c-2.7-2.7-6.4-4.3-10.3-4.3c-1.2,0-2.3,0.2-3.5,0.4c-5.4-19.8-23.5-34.3-44.9-34.3c-21.5,0-39.5,14.5-44.9,34.3
		c-1-0.2-2.1-0.4-3.2-0.4c-3.9,0-7.5,1.5-10.3,4.3l-5,5c-5.7,5.7-5.7,14.9,0,20.5l0,0c1.4,1.4,3,2.5,4.8,3.2v6.3
		c-5.5,2-9.5,7.4-9.5,13.6v7.1c0,6.2,4,11.6,9.5,13.6v7.4H79.6c-2.8,0-5,2.2-5,5v7.6c0,0.1,0,0.1,0,0.2
		c-13.9,7.8-23.3,22.7-23.3,39.7c0,25.1,20.4,45.5,45.5,45.5c25.1,0,45.5-20.4,45.5-45.5c0-17.1-9.4-31.9-23.3-39.7
		c0-0.1,0-0.1,0-0.2v-7.6c0-2.8-2.2-5-5-5h-12.4V151c5.5-2,9.5-7.4,9.5-13.6v-7.1c0-6.2-4-11.6-9.5-13.6v-6c2-0.6,3.9-1.7,5.5-3.3
		c6.9,17.1,23.6,29.2,43.2,29.2c19.6,0,36.4-12.2,43.3-29.3c1.6,1.6,3.6,2.7,5.6,3.4v6c-5.5,2-9.5,7.4-9.5,13.6v7.1
		c0,6.2,4,11.6,9.5,13.6v7.4h-13.3c-2.8,0-5,2.2-5,5v7.6c0,0.1,0,0.1,0,0.2c-13.9,7.8-23.3,22.7-23.3,39.7
		c0,25.1,20.4,45.5,45.5,45.5c25.1,0,45.5-20.4,45.5-45.5C248.7,193.9,239.3,179.1,225.4,171.3z M96.8,236.6
		c-14.1,0-25.5-11.5-25.5-25.5s11.5-25.5,25.5-25.5s25.5,11.5,25.5,25.5S110.9,236.6,96.8,236.6z M101.2,130.3v7.1
		c0,0.7-0.2,1.3-0.4,1.9c-0.9-1.3-2.4-2.2-4.1-2.2c-1.7,0-3.2,0.9-4.1,2.2c-0.3-0.6-0.4-1.2-0.4-1.9v-7.1c0-0.2,0-0.5,0.1-0.7
		c0.8,1.6,2.5,2.8,4.4,2.8c2,0,3.6-1.1,4.4-2.8C101.2,129.8,101.2,130.1,101.2,130.3z M101.3,99.2c-0.8-1.8-2.5-3-4.6-3
		c-1.6,0-2.9,0.7-3.9,1.9c-0.4-1.5,0-3.2,1.2-4.3l5-5c0.9-0.9,2-1.3,3.2-1.3c0.6,0,1.1,0.1,1.6,0.3c0,0.8-0.1,1.6-0.1,2.4
		c0,2.1,0.2,4.2,0.4,6.2L101.3,99.2z M173.9,106.5c2,2,2,5.1,0,7.1c-1,1-2.3,1.5-3.5,1.5s-2.6-0.5-3.5-1.5l-16.4-16.4l-16.4,16.4
		c-1,1-2.3,1.5-3.5,1.5s-2.6-0.5-3.5-1.5c-2-2-2-5.1,0-7.1L143.3,90l-16.4-16.4c-2-2-2-5.1,0-7.1c2-2,5.1-2,7.1,0L150.4,83
		l16.4-16.4c2-2,5.1-2,7.1,0c2,2,2,5.1,0,7.1L157.4,90L173.9,106.5z M199.7,137.4v-7.1c0-0.2,0-0.5,0.1-0.7c0.8,1.6,2.5,2.8,4.4,2.8
		c2,0,3.6-1.1,4.4-2.8c0,0.2,0.1,0.5,0.1,0.7v7.1c0,0.7-0.2,1.3-0.4,1.9c-0.9-1.3-2.4-2.2-4.1-2.2c-1.7,0-3.2,0.9-4.1,2.2
		C199.9,138.7,199.7,138.1,199.7,137.4z M196.9,87.8c0.6-0.3,1.2-0.4,1.9-0.4c1.2,0,2.3,0.5,3.2,1.3l5,5c0.9,0.9,1.3,2,1.3,3.2
		c0,0.4-0.1,0.8-0.2,1.2c-0.9-1.1-2.3-1.9-3.9-1.9c-2.1,0-3.8,1.2-4.6,3l-3.1-3.1c0.3-2,0.4-4,0.4-6
		C196.9,89.3,196.9,88.5,196.9,87.8z M203.2,236.6c-14.1,0-25.5-11.5-25.5-25.5s11.5-25.5,25.5-25.5c14.1,0,25.5,11.5,25.5,25.5
		S217.3,236.6,203.2,236.6z"/>
</g>
</svg>
