<?xml version="1.0" encoding="utf-8"?>
<!-- Generator: Adobe Illustrator 27.5.0, SVG Export Plug-In . SVG Version: 6.00 Build 0)  -->
<svg version="1.1" id="Layer_1" xmlns="http://www.w3.org/2000/svg" xmlns:xlink="http://www.w3.org/1999/xlink" x="0px" y="0px"
	 viewBox="0 0 300 300" style="enable-background:new 0 0 300 300;" xml:space="preserve">
<style type="text/css">
	.st0{fill:url(#SVGID_1_);}
</style>
<linearGradient id="SVGID_1_" gradientUnits="userSpaceOnUse" x1="68.0082" y1="74.5202" x2="213.7183" y2="220.2303">
	<stop  offset="0" style="stop-color:#6532FF"/>
	<stop  offset="1" style="stop-color:#FC5D51"/>
</linearGradient>
<path class="st0" d="M96.6,94.8c0-2.8,2.2-5,5-5h96.9c2.8,0,5,2.2,5,5s-2.2,5-5,5h-96.9C98.8,99.8,96.6,97.6,96.6,94.8z M110.7,82.5
	h78.6c2.8,0,5-2.2,5-5s-2.2-5-5-5h-78.6c-2.8,0-5,2.2-5,5S107.9,82.5,110.7,82.5z M210.3,116.9v100.5c0,5.5-4.5,10-10,10H99.7
	c-5.5,0-10-4.5-10-10V116.9c0-5.5,4.5-10,10-10h100.5C205.8,106.9,210.3,111.4,210.3,116.9z M126.3,167.2c0,2.8,2.2,5,5,5h52.6
	c2.8,0,5-2.2,5-5s-2.2-5-5-5h-52.6C128.5,162.2,126.3,164.5,126.3,167.2z M131.3,154.8h52.6c2.8,0,5-2.2,5-5s-2.2-5-5-5h-52.6
	c-2.8,0-5,2.2-5,5S128.5,154.8,131.3,154.8z M188.8,202c0-2.8-2.2-5-5-5h-52.6c-2.8,0-5,2.2-5,5s2.2,5,5,5h52.6
	C186.6,207,188.8,204.8,188.8,202z M188.8,184.6c0-2.8-2.2-5-5-5h-52.6c-2.8,0-5,2.2-5,5c0,2.8,2.2,5,5,5h52.6
	C186.6,189.6,188.8,187.4,188.8,184.6z M188.8,132.4c0-2.8-2.2-5-5-5h-52.6c-2.8,0-5,2.2-5,5s2.2,5,5,5h52.6
	C186.6,137.4,188.8,135.2,188.8,132.4z M113.5,127.4c-2.8,0-5,2.2-5,5c0,2.8,2.2,5,5,5c2.8,0,5-2.2,5-5
	C118.5,129.6,116.2,127.4,113.5,127.4z M113.5,144.8c-2.8,0-5,2.2-5,5s2.2,5,5,5c2.8,0,5-2.2,5-5S116.2,144.8,113.5,144.8z
	 M113.5,162.2c-2.8,0-5,2.2-5,5c0,2.8,2.2,5,5,5c2.8,0,5-2.2,5-5C118.5,164.5,116.2,162.2,113.5,162.2z M113.5,179.6
	c-2.8,0-5,2.2-5,5c0,2.8,2.2,5,5,5c2.8,0,5-2.2,5-5C118.5,181.9,116.2,179.6,113.5,179.6z M113.5,197c-2.8,0-5,2.2-5,5s2.2,5,5,5
	c2.8,0,5-2.2,5-5S116.2,197,113.5,197z"/>
</svg>
