<?xml version="1.0" encoding="utf-8"?>
<!-- Generator: Adobe Illustrator 27.5.0, SVG Export Plug-In . SVG Version: 6.00 Build 0)  -->
<svg version="1.1" id="Layer_1" xmlns="http://www.w3.org/2000/svg" xmlns:xlink="http://www.w3.org/1999/xlink" x="0px" y="0px"
	 viewBox="0 0 300 300" style="enable-background:new 0 0 300 300;" xml:space="preserve">
<style type="text/css">
	.st0{fill:url(#SVGID_1_);}
	.st1{fill:url(#SVGID_00000023985128212943865740000018303934337308681663_);}
	.st2{fill:url(#SVGID_00000063634385783509000240000000506064859790868651_);}
</style>
<g>
	<g>
		<linearGradient id="SVGID_1_" gradientUnits="userSpaceOnUse" x1="57.9511" y1="72.7604" x2="179.3626" y2="241.2307">
			<stop  offset="0" style="stop-color:#6532FF"/>
			<stop  offset="1" style="stop-color:#FC5D51"/>
		</linearGradient>
		<path class="st0" d="M149.6,164.2c-23.8,0-46.7,10.8-62.8,29.8c-3.4,3.9-3.1,9.9,0.6,13.7c0.2,0.2,0.4,0.4,0.6,0.6
			c1.8,1.6,4.2,2.4,6.6,2.4c3,0,5.8-1.3,7.8-3.6c12.2-14.3,29.4-22.6,47.2-22.6c18.1,0,36.1,8.4,48.1,22.5c1.9,2.3,4.8,3.6,7.8,3.6
			c2.4,0,4.8-0.9,6.6-2.4c2.1-1.8,3.3-4.2,3.5-6.9c0.2-2.7-0.6-5.3-2.4-7.4C197.4,175.3,173.6,164.2,149.6,164.2z"/>
	</g>
	<g>
		
			<linearGradient id="SVGID_00000000210118951916116240000014468758411899939719_" gradientUnits="userSpaceOnUse" x1="44.0007" y1="82.814" x2="165.4122" y2="251.2842">
			<stop  offset="0" style="stop-color:#6532FF"/>
			<stop  offset="1" style="stop-color:#FC5D51"/>
		</linearGradient>
		<path style="fill:url(#SVGID_00000000210118951916116240000014468758411899939719_);" d="M149.8,202.6c-16,0-31.3,7.7-42,21
			c-3.2,4.1-2.9,9.9,0.7,13.6c0.3,0.3,0.5,0.5,0.8,0.8c1.8,1.4,4.1,2.2,6.4,2.2c3.1,0,6-1.4,8-3.8c6.8-8.5,16.3-13.4,26.1-13.4
			c10,0,19.9,5,26.6,13.3c1.9,2.4,4.8,3.8,8,3.8c2.3,0,4.6-0.8,6.4-2.2c4.4-3.5,5.1-9.9,1.6-14.3
			C181.7,210.4,165.9,202.6,149.8,202.6z"/>
	</g>
	<g>
		
			<linearGradient id="SVGID_00000001624604179747819230000015614784157617336466_" gradientUnits="userSpaceOnUse" x1="101.8255" y1="41.1414" x2="223.2371" y2="209.6116">
			<stop  offset="0" style="stop-color:#6532FF"/>
			<stop  offset="1" style="stop-color:#FC5D51"/>
		</linearGradient>
		<path style="fill:url(#SVGID_00000001624604179747819230000015614784157617336466_);" d="M236.1,130.9l-0.2-1c0-0.1,0-0.1,0-0.2
			c0,0,0-0.1,0-0.1l-10.7-60.7c0-0.1,0-0.2,0-0.4c0-0.1-0.1-0.2-0.1-0.4l-0.2-1.1c-0.2-0.8-0.7-1.5-1.3-1.9
			c-3.2-4-10.4-5.9-18.8-4.5c-4.6,0.8-8.8,2.5-11.8,4.9c-2.3,1.8-3.7,3.7-4.4,5.8c-0.5,0.6-0.7,1.5-0.5,2.3l1.7,9.3h-21V69.7
			c0-0.9-0.3-1.6-0.9-2.2c-2.4-4.6-9.2-7.7-17.8-7.7c-8.8,0-15.8,3.3-18,8.1c-0.4,0.5-0.6,1.1-0.6,1.8v0.2c-0.1,0.4-0.1,0.8-0.1,1.2
			c0,0.3,0,0.5,0.1,0.8v11.1h-21l1.7-9.2c0.2-0.9-0.1-1.7-0.6-2.4c-0.6-2-2.1-4-4.3-5.7c-3-2.3-7.2-4.1-11.8-4.9
			c-4.6-0.8-9.2-0.6-12.8,0.6c-2.7,0.9-4.7,2.2-6,3.9c-0.7,0.4-1.1,1.1-1.3,1.9L75,68.2c0,0.1-0.1,0.3-0.1,0.4c0,0.1,0,0.2,0,0.4
			l-10.5,59.4c-0.2,0.4-0.3,0.9-0.4,1.3c-0.1,0.5-0.1,1-0.1,1.4c-0.1,0.6,0,1.1,0.2,1.5c0.5,2.3,2,4.6,4.5,6.5
			c3,2.3,7.2,4.1,11.8,4.9c1.9,0.3,3.7,0.5,5.5,0.5c2.7,0,5.2-0.4,7.3-1.1c2.7-0.9,4.8-2.3,6.1-4c0.7-0.4,1.2-1.1,1.3-2l8-44.6h22.8
			v41.7c0,0.9,0.3,1.6,0.9,2.2c2.4,4.6,9.2,7.7,17.8,7.7c8.7,0,15.7-3.3,17.9-8c0.4-0.5,0.7-1.2,0.7-1.9v-0.3
			c0.1-0.4,0.1-0.7,0.1-1.1c0-0.4,0-0.8-0.1-1.2V92.9h22.8l7.9,44.6c0.2,0.8,0.6,1.4,1.1,1.8c2.3,3.3,7.3,5.3,13.5,5.3
			c1.8,0,3.7-0.2,5.6-0.5c4.6-0.8,8.8-2.5,11.8-4.9c2.5-1.9,4-4.1,4.5-6.4C236.1,132.2,236.2,131.6,236.1,130.9z M94.9,135
			c-0.2,1-1.5,2.1-3.5,2.7c-2.7,0.9-6.3,1-9.9,0.4c-3.6-0.6-7-2-9.2-3.7c-1.3-1-2.2-2.1-2.4-3l0.2-1.3c0.9-1.5,4.2-2.9,8.7-2.9
			c1.4,0,2.9,0.2,4.4,0.4c3.6,0.6,7,2,9.2,3.7C94.2,132.6,95.1,134,94.9,135z M162.6,133.7c-0.7,2.1-5.5,4.8-12.6,4.8
			c-7.8,0-12.7-3.1-12.7-5.3c0-2.1,5-5.3,12.7-5.3c7.2,0,11.9,2.7,12.6,4.8V133.7z M227.6,134.5c-2.3,1.7-5.6,3.1-9.2,3.7
			c-7.6,1.3-13-1-13.4-3.1c-0.3-2.2,4-6.2,11.6-7.5c1.5-0.3,3-0.4,4.4-0.4c2,0,3.9,0.3,5.5,0.9c1.9,0.7,3.2,1.6,3.5,2.6l0,0.2
			C230.1,131.9,229.2,133.2,227.6,134.5z"/>
	</g>
</g>
</svg>
