<?xml version="1.0" encoding="utf-8"?>
<!-- Generator: Adobe Illustrator 27.5.0, SVG Export Plug-In . SVG Version: 6.00 Build 0)  -->
<svg version="1.1" id="Layer_1" xmlns="http://www.w3.org/2000/svg" xmlns:xlink="http://www.w3.org/1999/xlink" x="0px" y="0px"
	 viewBox="0 0 300 300" style="enable-background:new 0 0 300 300;" xml:space="preserve">
<style type="text/css">
	.st0{fill:url(#SVGID_1_);}
	.st1{fill:url(#SVGID_00000139979098078448512660000016854882110091046038_);}
	.st2{fill:url(#SVGID_00000137101555147933653610000015220480530525519251_);}
	.st3{fill:url(#SVGID_00000086693576983422257080000015251645503205055128_);}
	.st4{fill:url(#SVGID_00000054984968689430239340000017765040687724017552_);}
	.st5{fill:url(#SVGID_00000163759951196499931070000011233714680384051383_);}
	.st6{fill:url(#SVGID_00000067226399630795455270000005759993409001648534_);}
	.st7{fill:url(#SVGID_00000155148672046321163250000008585966011754507674_);}
	.st8{fill:url(#SVGID_00000143578410170031956910000002421251259223019140_);}
</style>
<g>
	<linearGradient id="SVGID_1_" gradientUnits="userSpaceOnUse" x1="85.0549" y1="86.088" x2="223.358" y2="224.3911">
		<stop  offset="0" style="stop-color:#6532FF"/>
		<stop  offset="1" style="stop-color:#FC5D51"/>
	</linearGradient>
	<path class="st0" d="M176,181.4l-3.6-3.6c0,0,0,0,0,0l-15.8-15.8c0.4-0.9,0.7-2,0.7-3.1c0-3.2-2-5.8-4.8-6.9v-15.6
		c0-1.4-1.1-2.5-2.5-2.5s-2.5,1.1-2.5,2.5V152c-2.8,1-4.8,3.7-4.8,6.9c0,4,3.3,7.3,7.3,7.3c1.1,0,2.1-0.3,3.1-0.7l19.4,19.4
		c0.5,0.5,1.1,0.7,1.8,0.7s1.3-0.2,1.8-0.7c0.5-0.5,0.7-1.1,0.7-1.8C176.8,182.5,176.5,181.8,176,181.4z"/>
	
		<linearGradient id="SVGID_00000132797167030462059590000009325697649506020540_" gradientUnits="userSpaceOnUse" x1="97.0177" y1="74.1252" x2="235.3209" y2="212.4283">
		<stop  offset="0" style="stop-color:#6532FF"/>
		<stop  offset="1" style="stop-color:#FC5D51"/>
	</linearGradient>
	<path style="fill:url(#SVGID_00000132797167030462059590000009325697649506020540_);" d="M150,132.2c1.4,0,2.5-1.1,2.5-2.5v-5.1
		c0-1.4-1.1-2.5-2.5-2.5s-2.5,1.1-2.5,2.5v5.1C147.5,131,148.6,132.2,150,132.2z"/>
	
		<linearGradient id="SVGID_00000086685666270254583200000012619685201702599337_" gradientUnits="userSpaceOnUse" x1="103.5961" y1="67.5468" x2="241.8992" y2="205.8499">
		<stop  offset="0" style="stop-color:#6532FF"/>
		<stop  offset="1" style="stop-color:#FC5D51"/>
	</linearGradient>
	<path style="fill:url(#SVGID_00000086685666270254583200000012619685201702599337_);" d="M172.5,132.8l-3.6,3.6c-1,1-1,2.6,0,3.5
		c0.5,0.5,1.1,0.7,1.8,0.7s1.3-0.2,1.8-0.7l3.6-3.6c1-1,1-2.6,0-3.5S173.5,131.9,172.5,132.8z"/>
	
		<linearGradient id="SVGID_00000111179089600870766240000010771958153820944512_" gradientUnits="userSpaceOnUse" x1="97.018" y1="74.1249" x2="235.3211" y2="212.428">
		<stop  offset="0" style="stop-color:#6532FF"/>
		<stop  offset="1" style="stop-color:#FC5D51"/>
	</linearGradient>
	<path style="fill:url(#SVGID_00000111179089600870766240000010771958153820944512_);" d="M179.2,161.4h5.1c1.4,0,2.5-1.1,2.5-2.5
		s-1.1-2.5-2.5-2.5h-5.1c-1.4,0-2.5,1.1-2.5,2.5S177.8,161.4,179.2,161.4z"/>
	
		<linearGradient id="SVGID_00000076594855477377068890000010231162765648929963_" gradientUnits="userSpaceOnUse" x1="65.2565" y1="105.8864" x2="203.5596" y2="244.1895">
		<stop  offset="0" style="stop-color:#6532FF"/>
		<stop  offset="1" style="stop-color:#FC5D51"/>
	</linearGradient>
	<path style="fill:url(#SVGID_00000076594855477377068890000010231162765648929963_);" d="M150,185.6c-1.4,0-2.5,1.1-2.5,2.5v5.1
		c0,1.4,1.1,2.5,2.5,2.5s2.5-1.1,2.5-2.5v-5.1C152.5,186.7,151.4,185.6,150,185.6z"/>
	
		<linearGradient id="SVGID_00000176011009216348891070000000442902995600985019_" gradientUnits="userSpaceOnUse" x1="58.6789" y1="112.464" x2="196.982" y2="250.7672">
		<stop  offset="0" style="stop-color:#6532FF"/>
		<stop  offset="1" style="stop-color:#FC5D51"/>
	</linearGradient>
	<path style="fill:url(#SVGID_00000176011009216348891070000000442902995600985019_);" d="M127.6,177.8l-3.6,3.6c-1,1-1,2.6,0,3.5
		c0.5,0.5,1.1,0.7,1.8,0.7s1.3-0.2,1.8-0.7l3.6-3.6c1-1,1-2.6,0-3.5C130.1,176.8,128.5,176.8,127.6,177.8z"/>
	
		<linearGradient id="SVGID_00000116943706316717550720000006058224493088674204_" gradientUnits="userSpaceOnUse" x1="65.2567" y1="105.8861" x2="203.5599" y2="244.1893">
		<stop  offset="0" style="stop-color:#6532FF"/>
		<stop  offset="1" style="stop-color:#FC5D51"/>
	</linearGradient>
	<path style="fill:url(#SVGID_00000116943706316717550720000006058224493088674204_);" d="M120.8,156.4h-5.1c-1.4,0-2.5,1.1-2.5,2.5
		s1.1,2.5,2.5,2.5h5.1c1.4,0,2.5-1.1,2.5-2.5S122.2,156.4,120.8,156.4z"/>
	
		<linearGradient id="SVGID_00000017506234104020414590000014236850491551505578_" gradientUnits="userSpaceOnUse" x1="81.1376" y1="90.0053" x2="219.4407" y2="228.3084">
		<stop  offset="0" style="stop-color:#6532FF"/>
		<stop  offset="1" style="stop-color:#FC5D51"/>
	</linearGradient>
	<path style="fill:url(#SVGID_00000017506234104020414590000014236850491551505578_);" d="M127.5,132.8c-1-1-2.6-1-3.5,0
		s-1,2.6,0,3.5l3.6,3.6c0.5,0.5,1.1,0.7,1.8,0.7s1.3-0.2,1.8-0.7c1-1,1-2.6,0-3.5L127.5,132.8z"/>
	
		<linearGradient id="SVGID_00000107569748238935390820000015947042544245923215_" gradientUnits="userSpaceOnUse" x1="86.9049" y1="84.238" x2="225.2081" y2="222.5411">
		<stop  offset="0" style="stop-color:#6532FF"/>
		<stop  offset="1" style="stop-color:#FC5D51"/>
	</linearGradient>
	<path style="fill:url(#SVGID_00000107569748238935390820000015947042544245923215_);" d="M214.3,148.1v-12.2v-1.7h0
		c-0.9-34.7-29.4-62.6-64.3-62.6s-63.3,27.9-64.3,62.6h0v1.7v12.2c-4,3.8-6.6,9.2-6.6,15.2c0,6,2.6,11.4,6.6,15.2v2
		c0,6.6,5.4,12,12,12h1.1c5.3,0,9.8-3.5,11.4-8.3c8.4,13.2,23.1,21.9,39.8,21.9c16.8,0,31.5-8.7,39.8-21.9c1.6,4.8,6.1,8.3,11.4,8.3
		h1.1c0.7,0,1.3-0.1,1.9-0.2c-4,15.1-14.2,25.8-39.4,28.7c-0.9-1.5-2.5-2.5-4.3-2.5h-21.1c-2.8,0-5,2.2-5,5s2.2,5,5,5h21.1
		c1.9,0,3.5-1,4.3-2.5c30.4-3.4,41.3-17.7,45-36.2c2.7-2.2,4.4-5.5,4.4-9.3v-2c4-3.8,6.6-9.2,6.6-15.2
		C220.9,157.3,218.3,151.9,214.3,148.1z M150,196c-20.5,0-37.2-16.7-37.2-37.2s16.7-37.2,37.2-37.2s37.2,16.7,37.2,37.2
		S170.5,196,150,196z M201.2,134.1c-3.5,0-6.7,1.5-8.9,4c-7.7-15.6-23.8-26.4-42.3-26.4c-18.6,0-34.7,10.8-42.3,26.4
		c-2.2-2.4-5.4-4-8.9-4h-3c0.9-29.1,24.9-52.6,54.3-52.6s53.3,23.4,54.3,52.6H201.2z"/>
</g>
</svg>
