<?xml version="1.0" encoding="utf-8"?>
<!-- Generator: Adobe Illustrator 27.5.0, SVG Export Plug-In . SVG Version: 6.00 Build 0)  -->
<svg version="1.1" id="Layer_1" xmlns="http://www.w3.org/2000/svg" xmlns:xlink="http://www.w3.org/1999/xlink" x="0px" y="0px"
	 viewBox="0 0 300 300" style="enable-background:new 0 0 300 300;" xml:space="preserve">
<style type="text/css">
	.st0{fill:url(#SVGID_1_);}
</style>
<linearGradient id="SVGID_1_" gradientUnits="userSpaceOnUse" x1="92.9195" y1="84.4903" x2="223.1589" y2="214.7297">
	<stop  offset="0" style="stop-color:#6532FF"/>
	<stop  offset="1" style="stop-color:#FC5D51"/>
</linearGradient>
<path class="st0" d="M217.6,142.1L217.6,142.1c0,32.5-26.1,58.9-58.6,59.3l-2.6,13.9c-0.3,1.5-2.3,2-3.2,0.7l-10.9-14.6
	c-32.5-0.3-58.8-26.7-58.8-59.3l0,0c0-32.8,26.6-59.4,59.4-59.4h15.4C191,82.7,217.6,109.3,217.6,142.1z M117.9,148.2
	c1.5-0.1,2.7-1.5,2.6-3.1c-0.8-9.1,2.4-17.8,8.5-23.9c6.2-6.2,15.3-9.5,24.2-8.8c1.6,0.1,2.9-1,3.1-2.6c0.1-1.6-1-2.9-2.6-3.1
	c-10.5-0.8-21.3,3.1-28.6,10.5c-7.3,7.3-11,17.6-10.1,28.4c0.1,1.5,1.3,2.6,2.8,2.6C117.8,148.2,117.9,148.2,117.9,148.2z
	 M133.1,149.6c1.5-0.2,2.6-1.6,2.5-3.1c-0.6-5.5,1.1-10.7,4.6-14.2c3.6-3.6,8.9-5.4,14.4-4.8c1.5,0.1,3-1,3.1-2.5
	c0.1-1.5-1-3-2.5-3.1c-7.1-0.8-14.2,1.7-19,6.5c-4.8,4.7-7,11.6-6.2,18.8c0.1,1.5,1.4,2.5,2.8,2.5
	C132.8,149.6,132.9,149.6,133.1,149.6z M175.9,167.9c7.3-7.3,11-17.6,10.1-28.4c-0.1-1.5-1.5-2.7-3.1-2.6c-1.5,0.1-2.7,1.5-2.6,3.1
	c0.8,9.1-2.4,17.8-8.5,23.9c-6.2,6.2-15.3,9.5-24.2,8.8c-1.6-0.1-2.9,1-3.1,2.6c-0.1,1.6,1,2.9,2.6,3.1c0.9,0.1,1.9,0.1,2.8,0.1
	C159.7,178.5,169.2,174.7,175.9,167.9z M164.8,156.9c4.8-4.7,7-11.6,6.2-18.8c-0.2-1.5-1.6-2.6-3.1-2.5c-1.5,0.2-2.6,1.6-2.5,3.1
	c0.6,5.5-1.1,10.7-4.6,14.2c-3.6,3.6-8.9,5.3-14.4,4.8c-1.5-0.1-3,1-3.1,2.5c-0.1,1.5,1,3,2.5,3.1c0.9,0.1,1.7,0.1,2.6,0.1
	C154.6,163.5,160.5,161.2,164.8,156.9z"/>
</svg>
