<?xml version="1.0" encoding="utf-8"?>
<!-- Generator: Adobe Illustrator 27.5.0, SVG Export Plug-In . SVG Version: 6.00 Build 0)  -->
<svg version="1.1" id="Layer_1" xmlns="http://www.w3.org/2000/svg" xmlns:xlink="http://www.w3.org/1999/xlink" x="0px" y="0px"
	 viewBox="0 0 300 300" style="enable-background:new 0 0 300 300;" xml:space="preserve">
<style type="text/css">
	.st0{fill:url(#SVGID_1_);}
</style>
<linearGradient id="SVGID_1_" gradientUnits="userSpaceOnUse" x1="92.9195" y1="84.4903" x2="223.1589" y2="214.7297">
	<stop  offset="0" style="stop-color:#6532FF"/>
	<stop  offset="1" style="stop-color:#FC5D51"/>
</linearGradient>
<path class="st0" d="M158.2,82.7h-15.4c-32.8,0-59.4,26.6-59.4,59.4l0,0c0,32.6,26.3,59.1,58.8,59.3l10.9,14.6
	c0.9,1.2,2.9,0.8,3.2-0.7l2.6-13.9c32.4-0.4,58.6-26.8,58.6-59.3l0,0C217.6,109.3,191,82.7,158.2,82.7z M150.5,122.7l3.8,11.6
	l1.1,3.5h3.6h12.2l-9.8,7.2l-2.9,2.1l1.1,3.5l3.8,11.6l-9.8-7.2l-2.9-2.1l-2.9,2.1l-9.8,7.2l3.8-11.6l1.1-3.5l-2.9-2.1l-9.8-7.2H142
	h3.6l1.1-3.5L150.5,122.7 M150.5,108.4c0.3,0,0.7,0.2,0.8,0.6l7.7,23.7h24.9c0.8,0,1.2,1.1,0.5,1.6l-20.1,14.6l7.7,23.7
	c0.2,0.6-0.3,1.1-0.8,1.1c-0.2,0-0.3-0.1-0.5-0.2l-20.1-14.6l-20.1,14.6c-0.2,0.1-0.3,0.2-0.5,0.2c-0.5,0-1-0.5-0.8-1.1l7.7-23.7
	l-20.1-14.6c-0.7-0.5-0.3-1.6,0.5-1.6H142l7.7-23.7C149.8,108.6,150.2,108.4,150.5,108.4L150.5,108.4z"/>
</svg>
