<?xml version="1.0" encoding="utf-8"?>
<!-- Generator: Adobe Illustrator 27.5.0, SVG Export Plug-In . SVG Version: 6.00 Build 0)  -->
<svg version="1.1" id="Layer_1" xmlns="http://www.w3.org/2000/svg" xmlns:xlink="http://www.w3.org/1999/xlink" x="0px" y="0px"
	 viewBox="0 0 300 300" style="enable-background:new 0 0 300 300;" xml:space="preserve">
<style type="text/css">
	.st0{fill:url(#SVGID_1_);}
</style>
<g>
	<linearGradient id="SVGID_1_" gradientUnits="userSpaceOnUse" x1="86.2362" y1="66.835" x2="200.5889" y2="237.6582">
		<stop  offset="0" style="stop-color:#6532FF"/>
		<stop  offset="1" style="stop-color:#FC5D51"/>
	</linearGradient>
	<path class="st0" d="M263.8,162.1c0-30.6-23.9-55.9-54.4-57.5l-6.2,0c0,0,0,0,0,0L116.1,57c-0.8-0.5-1.7-0.7-2.6-0.7
		c-2.6,0-5.4,2-5.4,5.4v42.8l-17.2,0l-0.3,0c-30.5,1.7-54.4,26.9-54.4,57.5c0,31.5,25.3,57.1,56.7,57.6c1.4,8.5,6.2,16.1,13.3,21.1
		c2.5,1.8,5.5,2.8,8.7,2.8c2.3,0,4.7-0.6,6.9-1.6c3.8-1.9,6.5-5.3,7.5-9.3h18.6c2.8,0,5-2.2,5-5c0-2.8-2.2-5-5-5h-18.1v-17.2h18.1
		c2.8,0,5-2.2,5-5c0-2.8-2.2-5-5-5h-18.7c-1.1-3.9-3.8-7.3-7.5-9.2c-4.9-2.6-10.9-2.3-15.6,1c-7.4,5.2-12.3,13.4-13.5,22.3
		c-25.7-0.6-46.5-21.7-46.5-47.6c0-25.2,19.7-46.1,44.8-47.6h17.1v42.2c0,3.3,2.8,5.4,5.4,5.4c0.8,0,1.7-0.3,2.6-0.5l86.3-47.1h6.5
		c25.2,1.4,44.8,22.3,44.8,47.6c0,25.9-20.8,47-46.5,47.6c-2.1-14.2-14.4-25.2-29.2-25.2c-7,0-12.7,5.7-12.7,12.7V231
		c0,7,5.7,12.7,12.7,12.7c14.3,0,26.3-10.3,29-23.9C238.4,219.3,263.8,193.6,263.8,162.1z"/>
</g>
</svg>
