<?xml version="1.0" encoding="utf-8"?>
<!-- Generator: Adobe Illustrator 27.5.0, SVG Export Plug-In . SVG Version: 6.00 Build 0)  -->
<svg version="1.1" id="Layer_1" xmlns="http://www.w3.org/2000/svg" xmlns:xlink="http://www.w3.org/1999/xlink" x="0px" y="0px"
	 viewBox="0 0 300 300" style="enable-background:new 0 0 300 300;" xml:space="preserve">
<style type="text/css">
	.st0{fill:url(#SVGID_1_);}
	.st1{fill:url(#SVGID_00000032610288118398999930000005678651035675794059_);}
	.st2{fill:url(#SVGID_00000017479784556191235000000017553046849630695049_);}
</style>
<g>
	<linearGradient id="SVGID_1_" gradientUnits="userSpaceOnUse" x1="58.8431" y1="105.9941" x2="186.9525" y2="234.1036">
		<stop  offset="0" style="stop-color:#6532FF"/>
		<stop  offset="1" style="stop-color:#FC5D51"/>
	</linearGradient>
	<path class="st0" d="M202.8,219.8c-3.4-14.2-16.2-24.7-31.4-24.7c-15.2,0-28,10.5-31.4,24.7c-0.9,3.9,2.1,7.6,6.1,7.6h50.6
		C200.8,227.5,203.8,223.7,202.8,219.8z"/>
	
		<linearGradient id="SVGID_00000085220840355879261510000004925031107010968500_" gradientUnits="userSpaceOnUse" x1="81.83" y1="83.0072" x2="209.9394" y2="211.1167">
		<stop  offset="0" style="stop-color:#6532FF"/>
		<stop  offset="1" style="stop-color:#FC5D51"/>
	</linearGradient>
	<circle style="fill:url(#SVGID_00000085220840355879261510000004925031107010968500_);" cx="171.5" cy="172.6" r="18.5"/>
	
		<linearGradient id="SVGID_00000176002145145113845670000009325616512488463529_" gradientUnits="userSpaceOnUse" x1="97.1203" y1="67.7169" x2="225.2297" y2="195.8264">
		<stop  offset="0" style="stop-color:#6532FF"/>
		<stop  offset="1" style="stop-color:#FC5D51"/>
	</linearGradient>
	<path style="fill:url(#SVGID_00000176002145145113845670000009325616512488463529_);" d="M143.6,157.3l1.7-8.9
		c20.7-0.3,37.5-17.2,37.5-38c0-21-17-38-38-38h-9.9c-21,0-38,17-38,38c0,20.9,16.8,37.8,37.6,38l7,9.4
		C142.2,158.6,143.5,158.3,143.6,157.3z M134.2,95.2c0-3.2,2.6-5.7,5.7-5.7c3.2,0,5.7,2.6,5.7,5.7v15.5c0,3.2-2.6,5.7-5.7,5.7
		c-3.2,0-5.7-2.6-5.7-5.7V95.2z M134.2,125.7c0-3.2,2.6-5.7,5.7-5.7c3.2,0,5.7,2.6,5.7,5.7c0,3.2-2.6,5.7-5.7,5.7
		C136.7,131.5,134.2,128.9,134.2,125.7z"/>
</g>
</svg>
