<?xml version="1.0" encoding="utf-8"?>
<!-- Generator: Adobe Illustrator 27.5.0, SVG Export Plug-In . SVG Version: 6.00 Build 0)  -->
<svg version="1.1" id="Layer_1" xmlns="http://www.w3.org/2000/svg" xmlns:xlink="http://www.w3.org/1999/xlink" x="0px" y="0px"
	 viewBox="0 0 300 300" style="enable-background:new 0 0 300 300;" xml:space="preserve">
<style type="text/css">
	.st0{fill:url(#SVGID_1_);}
	.st1{fill:url(#SVGID_00000060006512339059003590000008082268983904616370_);}
	.st2{fill:url(#SVGID_00000078760949142004333780000016947288327761350546_);}
</style>
<g>
	<linearGradient id="SVGID_1_" gradientUnits="userSpaceOnUse" x1="65.8009" y1="116.963" x2="188.5124" y2="239.6745">
		<stop  offset="0" style="stop-color:#6532FF"/>
		<stop  offset="1" style="stop-color:#FC5D51"/>
	</linearGradient>
	<path class="st0" d="M167.6,196.2h-35.2c-2.8,0-5,2.2-5,5s2.2,5,5,5h35.2c2.8,0,5-2.2,5-5S170.4,196.2,167.6,196.2z"/>
	
		<linearGradient id="SVGID_00000033338909372306535710000018035605065590085504_" gradientUnits="userSpaceOnUse" x1="57.4157" y1="125.3483" x2="180.1271" y2="248.0597">
		<stop  offset="0" style="stop-color:#6532FF"/>
		<stop  offset="1" style="stop-color:#FC5D51"/>
	</linearGradient>
	<path style="fill:url(#SVGID_00000033338909372306535710000018035605065590085504_);" d="M167.6,212.9h-35.2c-2.8,0-5,2.2-5,5
		s2.2,5,5,5h10.5c-0.1,0.5-0.2,1-0.2,1.5c0,4,3.3,7.3,7.3,7.3s7.3-3.3,7.3-7.3c0-0.5-0.1-1-0.2-1.5h10.5c2.8,0,5-2.2,5-5
		S170.4,212.9,167.6,212.9z"/>
	
		<linearGradient id="SVGID_00000054228922603424789220000012224051752349259931_" gradientUnits="userSpaceOnUse" x1="102.6721" y1="80.0919" x2="225.3835" y2="202.8033">
		<stop  offset="0" style="stop-color:#6532FF"/>
		<stop  offset="1" style="stop-color:#FC5D51"/>
	</linearGradient>
	<path style="fill:url(#SVGID_00000054228922603424789220000012224051752349259931_);" d="M147.8,68.3c-28.8,1.1-52.2,24.7-53,53.4
		c-0.7,21.5,11,40.3,28.4,50c1.9,1.1,3.1,3.1,3.1,5.3v6.3c0,3.3,2.7,6,6,6h35.3c3.3,0,6-2.7,6-6V177c0-2.2,1.2-4.2,3.1-5.3
		c17-9.4,28.4-27.5,28.4-48.3C205.2,92.3,179.3,67.1,147.8,68.3z M149.4,157.3c-2,0-3.6-1.6-3.6-3.6s1.6-3.6,3.6-3.6
		c2,0,3.6,1.6,3.6,3.6S151.4,157.3,149.4,157.3z M151.8,133.1v7.9c0,1.5-1.3,2.6-2.8,2.5c-1.3-0.1-2.2-1.3-2.2-2.6v-11.6
		c0-0.6,0.4-1,1-1h1c8.4,0,15.6-6.4,16-14.8c0.4-8.9-6.7-16.3-15.5-16.3c-6.2,0-11.8,3.7-14.3,9.4c-0.5,1.2-1.9,1.9-3.2,1.5
		c-1.4-0.5-2-2-1.5-3.3c3.6-8.6,12.5-13.7,22-12.3c9,1.3,16.2,8.7,17.3,17.8C171.1,121.8,162.8,131.8,151.8,133.1z"/>
</g>
</svg>
