<?xml version="1.0" encoding="utf-8"?>
<!-- Generator: Adobe Illustrator 27.5.0, SVG Export Plug-In . SVG Version: 6.00 Build 0)  -->
<svg version="1.1" id="Layer_1" xmlns="http://www.w3.org/2000/svg" xmlns:xlink="http://www.w3.org/1999/xlink" x="0px" y="0px"
	 viewBox="0 0 300 300" style="enable-background:new 0 0 300 300;" xml:space="preserve">
<style type="text/css">
	.st0{fill:url(#SVGID_1_);}
	.st1{fill:url(#SVGID_00000040572567005633736190000010968173598646009984_);}
	.st2{fill:url(#SVGID_00000124851368006137481220000001906785872843549581_);}
</style>
<g>
	<linearGradient id="SVGID_1_" gradientUnits="userSpaceOnUse" x1="83.9255" y1="59.035" x2="233.2823" y2="208.3918">
		<stop  offset="0" style="stop-color:#6532FF"/>
		<stop  offset="1" style="stop-color:#FC5D51"/>
	</linearGradient>
	<path class="st0" d="M108.6,149.6c-2.5-5.7-3.7-11.8-3.7-18c0-24.9,20.2-45.1,45.1-45.1c4.7,0,9.3,0.6,13.6,1.8l-1.1,0.2
		c-2.7,0.4-4.6,3-4.2,5.7c0.4,2.5,2.5,4.3,4.9,4.3c0.2,0,0.5,0,0.8-0.1l24.1-3.6l-11.2-21.8c-1.3-2.5-4.3-3.4-6.7-2.2
		c-2.5,1.3-3.4,4.3-2.2,6.7l1.1,2.1c-5.9-1.9-12.4-3-19-3c-30.4,0-55.1,24.7-55.1,55.1c0,7.6,1.5,15.1,4.6,22c0.8,1.9,2.7,3,4.6,3
		c0.7,0,1.3-0.1,2-0.4C108.6,155.1,109.7,152.1,108.6,149.6z"/>
	
		<linearGradient id="SVGID_00000165210008290672408060000014538177731122134162_" gradientUnits="userSpaceOnUse" x1="77.6045" y1="65.356" x2="226.9613" y2="214.7128">
		<stop  offset="0" style="stop-color:#6532FF"/>
		<stop  offset="1" style="stop-color:#FC5D51"/>
	</linearGradient>
	<path style="fill:url(#SVGID_00000165210008290672408060000014538177731122134162_);" d="M195.1,131.6c0,24.9-20.2,45.1-45.1,45.1
		c-5,0-9.8-0.7-14.3-2.1l2.7-0.5c2.7-0.4,4.6-3,4.1-5.7c-0.4-2.7-3-4.6-5.7-4.1l-17.7,2.9c0,0,0,0,0,0l-6.9,1.1l12.4,23.4
		c0.9,1.7,2.6,2.7,4.4,2.7c0.8,0,1.6-0.2,2.3-0.6c2.4-1.3,3.4-4.3,2.1-6.8l-1.7-3.3c5.8,1.9,12,2.9,18.4,2.9
		c30.4,0,55.1-24.7,55.1-55.1c0-8.1-1.7-15.8-5.1-23.1c-1.2-2.5-4.1-3.6-6.6-2.4c-2.5,1.2-3.6,4.1-2.4,6.6
		C193.7,118.6,195.1,125,195.1,131.6z"/>
	
		<linearGradient id="SVGID_00000121992446441686457550000000686211665327156911_" gradientUnits="userSpaceOnUse" x1="42.0259" y1="110.6764" x2="184.9358" y2="253.5863">
		<stop  offset="0" style="stop-color:#6532FF"/>
		<stop  offset="1" style="stop-color:#FC5D51"/>
	</linearGradient>
	<path style="fill:url(#SVGID_00000121992446441686457550000000686211665327156911_);" d="M178.5,207.4h-56.9
		c-6.2,0-11.2,5-11.2,11.2c0,6.2,5,11.3,11.2,11.3h56.9c6.2,0,11.3-5,11.3-11.3C189.7,212.4,184.7,207.4,178.5,207.4z"/>
</g>
</svg>
