<?xml version="1.0" encoding="utf-8"?>
<!-- Generator: Adobe Illustrator 27.5.0, SVG Export Plug-In . SVG Version: 6.00 Build 0)  -->
<svg version="1.1" id="Layer_1" xmlns="http://www.w3.org/2000/svg" xmlns:xlink="http://www.w3.org/1999/xlink" x="0px" y="0px"
	 viewBox="0 0 300 300" style="enable-background:new 0 0 300 300;" xml:space="preserve">
<style type="text/css">
	.st0{fill:url(#SVGID_1_);}
</style>
<linearGradient id="SVGID_1_" gradientUnits="userSpaceOnUse" x1="44.0882" y1="54.3008" x2="407.4312" y2="417.6438">
	<stop  offset="8.105523e-02" style="stop-color:#6532FF"/>
	<stop  offset="0.4256" style="stop-color:#FC5D51"/>
</linearGradient>
<path class="st0" d="M83.4,124.4h112.8c2.5,0,4.5-2,4.5-4.5V95.4c0-2.5-2-4.5-4.5-4.5H83.4c-2.5,0-4.5,2-4.5,4.5v0v24.6v0
	C78.9,122.4,80.9,124.4,83.4,124.4z M190.7,114.4h-78.3v-13.5h78.3V114.4z M216.6,133.2H103.7c-2.4,0-4.4,2-4.4,4.4v0.1c0,0,0,0,0,0
	v24.6c0,0,0,0,0,0v0.1c0,2.4,2,4.4,4.4,4.4h112.9c2.4,0,4.4-2,4.4-4.4v-24.7C221.1,135.2,219.1,133.2,216.6,133.2z M211.1,156.7
	h-78.3v-13.5h78.3V156.7z M196.3,175.6H83.4c-2.4,0-4.4,2-4.4,4.4v0.1v24.6v0.1c0,2.4,2,4.4,4.4,4.4h112.9c2.4,0,4.4-2,4.4-4.4V180
	C200.7,177.6,198.7,175.6,196.3,175.6z M190.7,199.1h-78.3v-13.5h78.3V199.1z M92.6,99.6c0-1.7,1.4-3,3-3c1.7,0,3,1.4,3,3v7.5
	c0,1.7-1.4,2.9-3,2.9c-1.7,0-3-1.4-3-3V99.6z M92.6,115.7c0-1.7,1.4-3,3-3c1.7,0,3,1.4,3,3c0,1.7-1.4,3-3,3
	C94,118.7,92.6,117.3,92.6,115.7z M113,141.9c0-1.7,1.4-3,3-3c1.7,0,3,1.4,3,3v7.5c0,1.7-1.4,2.9-3,2.9c-1.7,0-3-1.4-3-3V141.9z
	 M113,158c0-1.7,1.4-3,3-3c1.7,0,3,1.4,3,3c0,1.7-1.4,3-3,3C114.4,161,113,159.7,113,158z M92.6,184.3c0-1.7,1.4-3,3-3
	c1.7,0,3,1.4,3,3v7.5c0,1.7-1.4,2.9-3,2.9c-1.7,0-3-1.4-3-3V184.3z M92.6,200.4c0-1.7,1.4-3,3-3c1.7,0,3,1.4,3,3c0,1.7-1.4,3-3,3
	C94,203.4,92.6,202.1,92.6,200.4z"/>
</svg>
